<svg width="308" height="88" viewBox="0 0 308 88" fill="none" xmlns="http://www.w3.org/2000/svg">
<g clip-path="url(#clip0_104_91)" filter="url(#filter0_d_104_91)">
<rect width="300" height="80" transform="translate(4)" fill="white"/>
<rect x="4" width="300" height="80" fill="#DFECF6" fill-opacity="0.08"/>
<path d="M173.32 43.9079V9.03392H177.224V43.9079H173.32ZM179.176 43.9079V9.03392H185.031V43.9079H179.176ZM186.983 43.9079V9.03392H188.935V43.9079H186.983ZM183.99 63C182.039 63 180.455 62.4089 179.241 61.2267L180.152 59.8673L180.217 59.6899L180.412 59.749C180.412 59.7884 180.434 59.8673 180.477 59.9855C180.477 60.0643 180.52 60.1628 180.607 60.281C180.651 60.3598 180.737 60.4386 180.867 60.5174C181.778 61.2268 182.906 61.5814 184.251 61.5814C185.118 61.5814 185.855 61.3647 186.463 60.9312C187.07 60.4583 187.373 59.9067 187.373 59.2762C187.373 58.8427 187.265 58.4683 187.048 58.1531C186.875 57.8773 186.549 57.6014 186.072 57.3256C185.595 57.0497 184.858 56.7148 183.86 56.3207C182.386 55.8085 181.323 55.2174 180.672 54.5475C180.065 53.8776 179.761 53.1289 179.761 52.3014C179.761 51.2768 180.173 50.4493 180.998 49.8188C181.822 49.1883 182.928 48.8731 184.316 48.8731C185.14 48.8731 185.92 49.0307 186.658 49.3459C187.352 49.6612 187.981 50.0749 188.545 50.5872L187.439 51.9467L187.308 51.8285C187.308 51.7891 187.287 51.73 187.243 51.6512C187.243 51.5329 187.2 51.4344 187.113 51.3556C187.07 51.2374 186.983 51.1389 186.853 51.0601C186.506 50.7448 186.094 50.5084 185.617 50.3508C185.183 50.2326 184.663 50.1735 184.055 50.1735C183.275 50.1735 182.667 50.3705 182.234 50.7645C181.757 51.1586 181.518 51.6315 181.518 52.1831C181.518 52.6166 181.605 52.991 181.778 53.3062C181.995 53.6214 182.364 53.917 182.884 54.1928C183.405 54.5081 184.186 54.843 185.226 55.1977C186.658 55.7494 187.655 56.301 188.219 56.8527C188.74 57.4438 189 58.1728 189 59.0397C189 59.7096 188.827 60.3401 188.48 60.9312C188.089 61.5223 187.525 62.0149 186.788 62.4089C186.007 62.803 185.075 63 183.99 63Z" fill="white"/>
<path d="M168.504 14.531C168.547 14.6098 168.46 14.866 168.244 15.2994H168.309L168.113 15.9496C168.07 15.989 168.048 16.1466 168.048 16.4225L167.723 16.5407C167.68 16.5801 167.571 16.5998 167.398 16.5998L165.056 16.5407C164.839 16.5407 164.709 16.5604 164.665 16.5998L161.672 16.6589H161.347C161.304 16.6589 161.217 16.5998 161.087 16.4816C161.087 16.4422 161.109 16.4028 161.152 16.3634V16.2452C161.239 16.0481 161.304 15.8511 161.347 15.6541C161.391 15.457 161.434 15.3388 161.477 15.2994C161.434 15.26 161.412 15.1812 161.412 15.063C161.412 14.866 161.456 14.6295 161.542 14.3537C161.629 14.0384 161.716 13.7429 161.803 13.4671C161.933 13.1912 162.041 12.9745 162.128 12.8169C162.215 12.6198 162.258 12.5213 162.258 12.5213V12.344C162.258 12.344 162.28 12.2652 162.323 12.1076C162.41 11.9105 162.475 11.6938 162.518 11.4574C162.605 11.2209 162.67 11.0042 162.713 10.8072C162.757 10.6101 162.779 10.4919 162.779 10.4525H162.713C162.757 10.2555 162.8 10.0782 162.844 9.92054C162.887 9.76292 162.93 9.6447 162.974 9.56589H163.039L162.974 9.44768C163.017 9.40827 163.104 9.23094 163.234 8.9157C163.191 8.87629 163.169 8.83689 163.169 8.79748C163.169 8.44283 163.256 8.04877 163.429 7.61531C163.603 7.18185 163.733 6.8075 163.819 6.49225L164.795 4.00969C164.926 3.65504 164.991 3.41861 164.991 3.30039H165.056C165.056 3.14276 165.099 2.94574 165.186 2.7093C165.316 2.43346 165.381 2.25614 165.381 2.17733H165.641C165.771 2.17733 165.88 2.13792 165.966 2.05911L167.203 2.11822C167.42 2.07881 167.615 2.05911 167.788 2.05911C167.962 2.05911 168.135 2.03941 168.309 2H171.952C171.995 2 172.017 2.03941 172.017 2.11822H172.147L171.952 2.53198C171.822 2.65019 171.757 2.84722 171.757 3.12306L171.562 3.53682H171.627L171.497 3.65504L171.562 3.77326C171.388 4.0491 171.301 4.24612 171.301 4.36434L171.432 4.48256C171.432 4.56137 171.367 4.65988 171.236 4.7781L171.041 5.84205H170.976C170.976 5.92087 170.954 5.97998 170.911 6.01938C170.911 6.05879 170.911 6.09819 170.911 6.1376L170.781 6.43314C170.738 6.47255 170.673 6.63017 170.586 6.90601C170.542 7.18185 170.499 7.35917 170.456 7.43798L170.391 7.73353C170.304 7.81234 170.26 7.91085 170.26 8.02907C170.26 8.14729 170.217 8.26551 170.13 8.38372V8.44283C170.13 8.56105 170.087 8.65956 170 8.73837V8.9157C169.783 9.11273 169.675 9.32946 169.675 9.56589L169.74 9.625L169.61 9.92054C169.523 10.1176 169.458 10.2949 169.415 10.4525C169.415 10.6101 169.371 10.7875 169.285 10.9845V11.1027C169.285 11.1421 169.263 11.2603 169.22 11.4574C169.176 11.6544 169.133 11.7726 169.089 11.812L168.959 12.2849C168.916 12.3637 168.894 12.4425 168.894 12.5213C168.894 12.6001 168.873 12.6789 168.829 12.7578L168.764 13.7035L168.569 14.4128C168.482 14.4128 168.46 14.4522 168.504 14.531ZM162.323 13.1715L162.388 13.7035L161.933 14.8857L161.998 14.9448C161.998 15.0236 161.976 15.1024 161.933 15.1812C161.933 15.26 161.933 15.3388 161.933 15.4176L161.868 15.595C161.868 15.6738 161.846 15.7329 161.803 15.7723L161.672 15.8905V16.2452L162.713 16.3043C162.8 16.2649 162.909 16.2649 163.039 16.3043C163.169 16.3043 163.277 16.2846 163.364 16.2452H163.819C163.906 16.2058 164.123 16.186 164.47 16.186H166.747C167.051 16.186 167.246 16.1663 167.333 16.1269V16.0678C167.55 15.2797 167.723 14.6492 167.853 14.1764C168.027 13.7035 168.157 13.3488 168.244 13.1124C168.374 12.876 168.46 12.7183 168.504 12.6395C168.547 12.5607 168.569 12.5213 168.569 12.5213V12.5804V12.2258C168.569 12.147 168.547 12.1076 168.504 12.1076C168.46 12.1076 168.439 12.0682 168.439 11.9893C168.439 11.8317 168.504 11.5362 168.634 11.1027C168.807 10.6693 168.938 10.2555 169.024 9.86143C169.154 9.74322 169.263 9.50678 169.35 9.15213C169.48 8.79748 169.588 8.42313 169.675 8.02907C169.805 7.63501 169.892 7.28036 169.935 6.96512C170.022 6.61047 170.087 6.39374 170.13 6.31492C170.174 6.19671 170.217 6.07849 170.26 5.96027C170.304 5.80265 170.369 5.66473 170.456 5.54651V5.4283C170.499 5.34948 170.521 5.25097 170.521 5.13275C170.564 5.01454 170.607 4.91602 170.651 4.83721L170.716 4.54167C170.716 4.46286 170.738 4.34464 170.781 4.18702C170.868 3.98999 170.933 3.85207 170.976 3.77326L171.367 2.35465C170.759 2.35465 170.26 2.37436 169.87 2.41376C169.523 2.41376 169.003 2.41376 168.309 2.41376H166.747C166.313 2.41376 166.053 2.45317 165.966 2.53198C165.923 2.57138 165.858 2.76841 165.771 3.12306L165.706 3.24128L165.381 4.30523C165.338 4.65989 165.272 4.87662 165.186 4.95543L165.121 5.25097C165.077 5.40859 165.034 5.56622 164.991 5.72384C164.947 5.84206 164.904 5.97998 164.86 6.1376H164.795L164.86 6.19671C164.817 6.19671 164.795 6.21641 164.795 6.25582C164.795 6.29522 164.774 6.33463 164.73 6.37403C164.73 6.41344 164.73 6.45284 164.73 6.49225L164.6 6.78779C164.6 6.8666 164.578 6.92571 164.535 6.96512C164.535 7.00452 164.47 7.14244 164.34 7.37888H164.275C164.275 7.41828 164.297 7.45769 164.34 7.49709C164.253 7.49709 164.188 7.59561 164.145 7.79264C164.145 7.98967 164.145 8.06848 164.145 8.02907H164.08C163.993 8.2655 163.906 8.50194 163.819 8.73837C163.776 8.97481 163.711 9.21124 163.624 9.44768L163.559 9.50678C163.516 9.58559 163.494 9.66441 163.494 9.74322C163.494 9.78263 163.472 9.80233 163.429 9.80233L163.494 9.86143H163.429C163.386 10.0585 163.342 10.2358 163.299 10.3934C163.256 10.5116 163.212 10.6101 163.169 10.689L163.234 10.7481C163.104 10.8663 162.974 11.1421 162.844 11.5756C162.757 11.9696 162.713 12.2061 162.713 12.2849H162.648C162.605 12.3243 162.583 12.3637 162.583 12.4031C162.583 12.4819 162.562 12.5607 162.518 12.6395C162.518 12.6789 162.518 12.7381 162.518 12.8169L162.323 13.1715Z" fill="white"/>
<path d="M138.376 43.9079V9.03392H140.327V43.9079H138.376ZM142.279 43.9079V9.03392H144.231V43.9079H142.279ZM150.087 43.9079V9.03392H153.99V43.9079H150.087ZM151.518 58.7442H146.638L145.142 62.7636H143.45L148.981 48.814H149.176L154.771 62.7636H153.014L151.518 58.7442ZM151.062 57.562L149.111 52.3605L147.094 57.562H151.062Z" fill="white"/>
<path d="M116.901 43.9079V9.03392H118.852V43.9079H116.901ZM120.804 43.9079V9.03392H126.66V43.9079H120.804ZM132.515 43.9079V9.03392H136.419V43.9079H132.515ZM122.821 49.0504H124.448L130.758 59.2171V49.0504H132.645V49.2277C132.515 49.3065 132.45 49.405 132.45 49.5233C132.407 49.6021 132.385 49.7794 132.385 50.0552V62.7636H131.084L124.382 52.0058V62.7636H122.821V49.0504Z" fill="white"/>
<path d="M95.4254 43.9079V9.03392H99.329V43.9079H95.4254ZM105.184 43.9079V9.03392H107.136V43.9079H105.184ZM112.992 43.9079V9.03392H114.944V43.9079H112.992ZM102.062 61.4632H105.054V50.3508H102.257V49.0504H109.739V50.3508H106.746V61.4632H109.869V62.7636H102.062V61.4632Z" fill="white"/>
<path d="M73.9503 43.9079V9.03392H75.9021V43.9079H73.9503ZM81.7575 43.9079V9.03392H85.6612V43.9079H81.7575ZM87.613 43.9079V9.03392H93.4685V43.9079H87.613ZM80.2611 49.0504H82.213V49.2277C82.1262 49.3065 82.0612 49.405 82.0178 49.5233C82.0178 49.6021 82.0178 49.7794 82.0178 50.0552V61.4632H89.2395V62.7636H80.2611V49.0504Z" fill="white"/>
<path d="M52.4751 43.9079V9.03392H54.427V43.9079H52.4751ZM60.2824 43.9079V9.03392H64.1861V43.9079H60.2824ZM66.1379 43.9079V9.03392H68.0897V43.9079H66.1379ZM58.5908 49.0504H67.8295V50.4099H60.1523V54.9021H66.5282V56.3207H60.1523V61.4041H67.7644V62.7636H58.5908V49.0504Z" fill="white"/>
<path d="M31 43.9079V9.03392H32.9518V43.9079H31ZM38.8073 43.9079V9.03392H40.7591V43.9079H38.8073ZM46.6146 43.9079V9.03392H50.5182V43.9079H46.6146ZM42.5808 63C41.4531 63 40.4555 62.7439 39.588 62.2316C38.6772 61.7193 37.9615 60.9509 37.441 59.9264C36.9205 58.8624 36.6603 57.5423 36.6603 55.9661C36.6603 54.3111 36.9422 52.9516 37.5061 51.8876C38.0699 50.8631 38.7856 50.1143 39.6531 49.6415C40.5206 49.208 41.4531 48.9913 42.4507 48.9913C43.535 48.9913 44.4676 49.2277 45.2483 49.7006C46.029 50.1735 46.6146 50.8236 47.0049 51.6512L45.5736 52.3014L45.3784 52.3605L45.3134 52.2423V52.0649C45.3134 51.9073 45.2049 51.6906 44.9881 51.4147C44.6411 50.9813 44.2507 50.666 43.817 50.469C43.3832 50.272 42.9278 50.1735 42.4507 50.1735C41.1495 50.1735 40.1302 50.6857 39.3928 51.7103C38.6989 52.6954 38.3519 54.0943 38.3519 55.907C38.3519 57.0103 38.5254 58.0152 38.8723 58.9215C39.2627 59.7884 39.7615 60.4583 40.3687 60.9312C41.0194 61.4041 41.735 61.6405 42.5158 61.6405C43.123 61.6405 43.6868 61.5026 44.2073 61.2267C44.7712 60.9115 45.2266 60.4977 45.5736 59.9855L46.8098 60.7539C46.2893 61.5026 45.7037 62.0543 45.0531 62.4089C44.3591 62.803 43.535 63 42.5808 63Z" fill="white"/>
<path d="M199.7 65.64C199.953 65.84 200.087 66.0333 200.1 66.22C200.127 66.4067 200.033 66.6267 199.82 66.88C199.66 67.0667 199.513 67.1867 199.38 67.24C199.26 67.3067 199.133 67.3133 199 67.26C198.867 67.22 198.713 67.1267 198.54 66.98L194.02 63.3V66.3C194.02 66.4867 193.993 66.6467 193.94 66.78C193.9 66.9133 193.82 67.0133 193.7 67.08C193.58 67.16 193.387 67.2 193.12 67.2C192.88 67.2 192.693 67.16 192.56 67.08C192.427 67.0133 192.34 66.9133 192.3 66.78C192.273 66.6333 192.26 66.4667 192.26 66.28V53.94C192.26 53.7533 192.28 53.5933 192.32 53.46C192.36 53.3267 192.447 53.2267 192.58 53.16C192.713 53.08 192.9 53.04 193.14 53.04C193.407 53.04 193.6 53.08 193.72 53.16C193.84 53.2267 193.92 53.3333 193.96 53.48C194 53.6133 194.02 53.7733 194.02 53.96V61.04L197.32 57.88C197.467 57.7333 197.607 57.6333 197.74 57.58C197.887 57.5133 198.027 57.5 198.16 57.54C198.307 57.58 198.453 57.6867 198.6 57.86C198.84 58.1267 198.953 58.3533 198.94 58.54C198.94 58.7133 198.82 58.9133 198.58 59.14L195.34 62.2L199.7 65.64ZM204.225 67.2C203.972 67.2 203.778 67.16 203.645 67.08C203.525 67.0133 203.445 66.9133 203.405 66.78C203.365 66.6467 203.345 66.4867 203.345 66.3V58.4C203.345 58.2133 203.365 58.0533 203.405 57.92C203.445 57.7867 203.525 57.6867 203.645 57.62C203.778 57.5533 203.978 57.52 204.245 57.52C204.498 57.52 204.685 57.56 204.805 57.64C204.925 57.7067 205.005 57.8067 205.045 57.94C205.085 58.0733 205.105 58.24 205.105 58.44V66.32C205.105 66.5067 205.085 66.6667 205.045 66.8C205.005 66.9333 204.918 67.0333 204.785 67.1C204.665 67.1667 204.478 67.2 204.225 67.2ZM204.225 55.12C203.932 55.12 203.712 55.08 203.565 55C203.418 54.9067 203.318 54.78 203.265 54.62C203.225 54.46 203.205 54.2733 203.205 54.06C203.205 53.8467 203.232 53.6667 203.285 53.52C203.338 53.36 203.438 53.2467 203.585 53.18C203.732 53.1 203.952 53.06 204.245 53.06C204.525 53.06 204.738 53.1 204.885 53.18C205.032 53.26 205.125 53.38 205.165 53.54C205.218 53.7 205.245 53.8867 205.245 54.1C205.245 54.3133 205.218 54.5 205.165 54.66C205.125 54.8067 205.032 54.92 204.885 55C204.738 55.08 204.518 55.12 204.225 55.12ZM216.498 67.2C216.084 67.2 215.704 67.1533 215.358 67.06C215.024 66.98 214.731 66.8533 214.478 66.68C214.238 66.5067 214.031 66.2867 213.858 66.02C213.684 65.7533 213.558 65.4467 213.478 65.1C213.398 64.7533 213.358 64.3667 213.358 63.94L213.338 53.92C213.338 53.7333 213.358 53.5733 213.398 53.44C213.438 53.3067 213.518 53.2 213.638 53.12C213.771 53.04 213.964 53 214.218 53C214.484 53 214.678 53.04 214.798 53.12C214.931 53.1867 215.018 53.2867 215.058 53.42C215.098 53.54 215.118 53.6933 215.118 53.88V64C215.118 64.24 215.144 64.4467 215.198 64.62C215.251 64.7933 215.331 64.9467 215.438 65.08C215.558 65.2 215.704 65.2867 215.878 65.34C216.051 65.3933 216.258 65.42 216.498 65.42C216.724 65.42 216.904 65.4467 217.038 65.5C217.171 65.5533 217.264 65.6467 217.318 65.78C217.384 65.9133 217.418 66.0933 217.418 66.32C217.418 66.5333 217.384 66.7067 217.318 66.84C217.251 66.96 217.151 67.0467 217.018 67.1C216.884 67.1667 216.711 67.2 216.498 67.2ZM211.778 67.2C211.378 67.2 211.011 67.1533 210.678 67.06C210.358 66.98 210.078 66.86 209.838 66.7C209.598 66.5267 209.398 66.3133 209.238 66.06C209.078 65.7933 208.958 65.4867 208.878 65.14C208.811 64.78 208.778 64.38 208.778 63.94V53.92C208.778 53.7333 208.798 53.5733 208.838 53.44C208.878 53.3067 208.958 53.2 209.078 53.12C209.211 53.04 209.404 53 209.658 53C209.911 53 210.098 53.04 210.218 53.12C210.351 53.1867 210.438 53.2867 210.478 53.42C210.531 53.54 210.558 53.6933 210.558 53.88V64C210.558 64.3067 210.604 64.5667 210.698 64.78C210.791 64.9933 210.931 65.1533 211.118 65.26C211.304 65.3667 211.524 65.42 211.778 65.42C211.978 65.42 212.138 65.4467 212.258 65.5C212.378 65.5533 212.464 65.6467 212.518 65.78C212.571 65.9133 212.598 66.0933 212.598 66.32C212.598 66.5333 212.564 66.7067 212.498 66.84C212.444 66.96 212.358 67.0467 212.238 67.1C212.131 67.1667 211.978 67.2 211.778 67.2ZM223.67 67.3C223.35 67.3 223.017 67.2667 222.67 67.2C222.323 67.1333 221.983 67.04 221.65 66.92C221.33 66.7867 221.043 66.6333 220.79 66.46C220.55 66.2867 220.37 66.0933 220.25 65.88C220.183 65.7467 220.143 65.6267 220.13 65.52C220.117 65.4 220.137 65.2867 220.19 65.18C220.243 65.0733 220.323 64.9667 220.43 64.86C220.563 64.7 220.697 64.6267 220.83 64.64C220.963 64.64 221.13 64.7267 221.33 64.9C221.477 64.9933 221.65 65.1 221.85 65.22C222.05 65.3267 222.257 65.4267 222.47 65.52C222.683 65.6 222.897 65.6733 223.11 65.74C223.337 65.7933 223.557 65.82 223.77 65.82C224.383 65.82 224.877 65.7067 225.25 65.48C225.623 65.24 225.81 64.9267 225.81 64.54C225.81 64.3133 225.763 64.12 225.67 63.96C225.577 63.8 225.45 63.6667 225.29 63.56C225.13 63.44 224.95 63.34 224.75 63.26C224.55 63.18 224.323 63.1067 224.07 63.04C223.83 62.96 223.59 62.8867 223.35 62.82C222.99 62.7267 222.637 62.62 222.29 62.5C221.943 62.38 221.63 62.2267 221.35 62.04C221.07 61.84 220.843 61.5933 220.67 61.3C220.497 60.9933 220.41 60.6067 220.41 60.14C220.41 59.5933 220.55 59.12 220.83 58.72C221.11 58.32 221.503 58.0133 222.01 57.8C222.517 57.5733 223.11 57.46 223.79 57.46C224.083 57.46 224.357 57.48 224.61 57.52C224.863 57.56 225.103 57.6267 225.33 57.72C225.57 57.8 225.797 57.9 226.01 58.02C226.223 58.1267 226.43 58.26 226.63 58.42C226.87 58.58 226.997 58.7533 227.01 58.94C227.023 59.1267 226.95 59.32 226.79 59.52C226.67 59.6933 226.537 59.8067 226.39 59.86C226.243 59.9 226.097 59.86 225.95 59.74C225.737 59.58 225.51 59.44 225.27 59.32C225.03 59.2 224.783 59.1 224.53 59.02C224.277 58.94 224.017 58.9 223.75 58.9C223.417 58.9 223.117 58.9533 222.85 59.06C222.597 59.1533 222.397 59.3 222.25 59.5C222.117 59.6867 222.05 59.9 222.05 60.14C222.05 60.3533 222.103 60.5267 222.21 60.66C222.33 60.7933 222.477 60.9067 222.65 61C222.837 61.0933 223.05 61.18 223.29 61.26C223.543 61.3267 223.803 61.3933 224.07 61.46C224.457 61.5533 224.85 61.6667 225.25 61.8C225.663 61.92 226.03 62.0867 226.35 62.3C226.683 62.5 226.95 62.7733 227.15 63.12C227.363 63.4533 227.47 63.9 227.47 64.46C227.47 65.34 227.123 66.0333 226.43 66.54C225.737 67.0467 224.817 67.3 223.67 67.3ZM229.57 67V55.2H230.77V67H229.57ZM231.37 67V55.2H232.57V67H231.37ZM233.77 67V55.2H234.97V67H233.77ZM237.371 67V55.2H238.571V67H237.371ZM239.171 67V55.2H240.971V67H239.171ZM241.571 67V55.2H242.171V67H241.571ZM240.651 73.46C240.051 73.46 239.564 73.26 239.191 72.86L239.471 72.4L239.491 72.34L239.551 72.36C239.551 72.3733 239.558 72.4 239.571 72.44C239.571 72.4667 239.584 72.5 239.611 72.54C239.624 72.5667 239.651 72.5933 239.691 72.62C239.971 72.86 240.318 72.98 240.731 72.98C240.998 72.98 241.224 72.9067 241.411 72.76C241.598 72.6 241.691 72.4133 241.691 72.2C241.691 72.0533 241.658 71.9267 241.591 71.82C241.538 71.7267 241.438 71.6333 241.291 71.54C241.144 71.4467 240.918 71.3333 240.611 71.2C240.158 71.0267 239.831 70.8267 239.631 70.6C239.444 70.3733 239.351 70.12 239.351 69.84C239.351 69.4933 239.478 69.2133 239.731 69C239.984 68.7867 240.324 68.68 240.751 68.68C241.004 68.68 241.244 68.7333 241.471 68.84C241.684 68.9467 241.878 69.0867 242.051 69.26L241.711 69.72L241.671 69.68C241.671 69.6667 241.664 69.6467 241.651 69.62C241.651 69.58 241.638 69.5467 241.611 69.52C241.598 69.48 241.571 69.4467 241.531 69.42C241.424 69.3133 241.298 69.2333 241.151 69.18C241.018 69.14 240.858 69.12 240.671 69.12C240.431 69.12 240.244 69.1867 240.111 69.32C239.964 69.4533 239.891 69.6133 239.891 69.8C239.891 69.9467 239.918 70.0733 239.971 70.18C240.038 70.2867 240.151 70.3867 240.311 70.48C240.471 70.5867 240.711 70.7 241.031 70.82C241.471 71.0067 241.778 71.1933 241.951 71.38C242.111 71.58 242.191 71.8267 242.191 72.12C242.191 72.3467 242.138 72.56 242.031 72.76C241.911 72.96 241.738 73.1267 241.511 73.26C241.271 73.3933 240.984 73.46 240.651 73.46ZM245.173 67V55.2H245.773V67H245.173ZM246.973 67V55.2H249.373V67H246.973ZM250.573 67V55.2H251.173V67H250.573ZM248.253 73.46C247.893 73.46 247.606 73.3267 247.393 73.06C247.179 72.7933 247.079 72.4 247.093 71.88V69.98H247.613V71.88C247.613 72.28 247.686 72.5733 247.833 72.76C247.966 72.9467 248.153 73.04 248.393 73.04C248.646 73.04 248.859 72.9333 249.033 72.72C249.219 72.52 249.313 72.2333 249.313 71.86V69.98H249.833V72.86C249.833 72.98 249.833 73.0733 249.833 73.14C249.846 73.22 249.866 73.3 249.893 73.38H249.393C249.353 73.3 249.333 73.22 249.333 73.14C249.319 73.0733 249.313 72.98 249.313 72.86C249.206 73.0467 249.059 73.1933 248.873 73.3C248.686 73.4067 248.479 73.46 248.253 73.46ZM252.974 67V55.2H253.574V67H252.974ZM254.774 67V55.2H255.374V67H254.774ZM256.574 67V55.2H258.974V67H256.574ZM256.914 69.9C257.274 69.9 257.574 70.0267 257.814 70.28L257.574 70.68L257.554 70.76L257.494 70.72C257.481 70.6667 257.468 70.6267 257.454 70.6C257.428 70.56 257.381 70.52 257.314 70.48C257.194 70.4 257.048 70.36 256.874 70.36C256.701 70.36 256.534 70.4067 256.374 70.5C256.214 70.58 256.088 70.7133 255.994 70.9C255.888 71.0867 255.834 71.3133 255.834 71.58V73.38H255.294V69.98H255.854L255.834 70.6C255.928 70.3867 256.074 70.2133 256.274 70.08C256.474 69.96 256.688 69.9 256.914 69.9ZM260.776 67V55.2H263.176V67H260.776ZM263.776 67V55.2H264.376V67H263.776ZM265.576 67V55.2H266.176V67H265.576ZM265.596 69.98C265.516 70.38 265.349 70.8733 265.096 71.46L264.276 73.38H263.856L262.516 69.98H263.056L264.096 72.64L264.656 71.38C264.882 70.8733 265.029 70.4067 265.096 69.98H265.596ZM268.577 67V55.2H269.177V67H268.577ZM269.777 67V55.2H270.977V67H269.777ZM272.177 67V55.2H272.777V67H272.177ZM272.037 73.46C271.531 73.46 271.131 73.3067 270.837 73C270.531 72.6933 270.377 72.26 270.377 71.7C270.377 71.3267 270.451 71 270.597 70.72C270.731 70.4533 270.917 70.2533 271.157 70.12C271.384 69.9733 271.644 69.9 271.937 69.9C272.351 69.9 272.684 70.0333 272.937 70.3C273.191 70.58 273.317 70.9867 273.317 71.52C273.317 71.5733 273.317 71.6533 273.317 71.76H270.897C270.911 72.1733 271.024 72.4867 271.237 72.7C271.451 72.9133 271.724 73.02 272.057 73.02C272.417 73.02 272.711 72.8933 272.937 72.64L273.237 72.94C272.944 73.2867 272.544 73.46 272.037 73.46ZM272.777 71.34C272.777 71.02 272.697 70.7667 272.537 70.58C272.377 70.3933 272.164 70.3 271.897 70.3C271.657 70.3 271.444 70.3867 271.257 70.56C271.071 70.7333 270.957 70.9933 270.917 71.34H272.777ZM276.379 67V55.2H277.579V67H276.379ZM278.179 67V55.2H279.379V67H278.179ZM279.979 67V55.2H282.379V67H279.979ZM281.119 69.98C281.079 70.18 281.032 70.38 280.979 70.58C280.912 70.78 280.826 71.0467 280.719 71.38L279.859 73.76C279.752 74.08 279.606 74.3133 279.419 74.46C279.232 74.6067 279.012 74.68 278.759 74.68C278.439 74.68 278.179 74.58 277.979 74.38L278.219 74.02L278.259 73.96L278.299 73.98C278.312 74.0333 278.332 74.0733 278.359 74.1C278.386 74.14 278.432 74.1733 278.499 74.2C278.592 74.2267 278.692 74.24 278.799 74.24C278.972 74.24 279.119 74.1733 279.239 74.04C279.346 73.9067 279.452 73.6933 279.559 73.4L278.159 69.98H278.719L279.779 72.7L280.219 71.34C280.326 70.9933 280.406 70.7333 280.459 70.56C280.512 70.3733 280.552 70.18 280.579 69.98H281.119Z" fill="white"/>
</g>
<defs>
<filter id="filter0_d_104_91" x="0" y="0" width="308" height="88" filterUnits="userSpaceOnUse" color-interpolation-filters="sRGB">
<feFlood flood-opacity="0" result="BackgroundImageFix"/>
<feColorMatrix in="SourceAlpha" type="matrix" values="0 0 0 0 0 0 0 0 0 0 0 0 0 0 0 0 0 0 127 0" result="hardAlpha"/>
<feOffset dy="4"/>
<feGaussianBlur stdDeviation="2"/>
<feComposite in2="hardAlpha" operator="out"/>
<feColorMatrix type="matrix" values="0 0 0 0 0 0 0 0 0 0 0 0 0 0 0 0 0 0 0.25 0"/>
<feBlend mode="normal" in2="BackgroundImageFix" result="effect1_dropShadow_104_91"/>
<feBlend mode="normal" in="SourceGraphic" in2="effect1_dropShadow_104_91" result="shape"/>
</filter>
<clipPath id="clip0_104_91">
<rect width="300" height="80" fill="white" transform="translate(4)"/>
</clipPath>
</defs>
</svg>
